<?xml version="1.0" encoding="UTF-8" standalone="no"?>
<svg
   width="406"
   height="92"
   viewBox="0 0 406 92"
   fill="none"
   version="1.1"
   id="svg275"
   sodipodi:docname="aikido.svg"
   inkscape:version="1.1.1 (3bf5ae0d25, 2021-09-20)"
   xmlns:inkscape="http://www.inkscape.org/namespaces/inkscape"
   xmlns:sodipodi="http://sodipodi.sourceforge.net/DTD/sodipodi-0.dtd"
   xmlns="http://www.w3.org/2000/svg"
   xmlns:svg="http://www.w3.org/2000/svg">
  <defs
     id="defs279" />
  <sodipodi:namedview
     id="namedview277"
     pagecolor="#ffffff"
     bordercolor="#666666"
     borderopacity="1.0"
     inkscape:pageshadow="2"
     inkscape:pageopacity="0.0"
     inkscape:pagecheckerboard="0"
     showgrid="false"
     inkscape:zoom="3.5738916"
     inkscape:cx="203"
     inkscape:cy="45.888353"
     inkscape:window-width="3840"
     inkscape:window-height="2054"
     inkscape:window-x="-11"
     inkscape:window-y="-11"
     inkscape:window-maximized="1"
     inkscape:current-layer="svg275" />
  <path
     d="M 67.782787,9.0572019 H 1.6788423 V 32.344655 H 67.782787 Z"
     fill="#6551f3"
     id="path259"
     style="stroke-width:0.806146" />
  <path
     d="m 1.6788423,54.18685 c 18.8058457,-16.972995 47.2980177,-16.972995 66.1039447,0 v 29.022615 l -0.01298,0.01314 L 34.730815,49.78787 1.6918022,83.222601 1.6788414,83.209465 Z"
     fill="#6551f3"
     id="path261"
     style="stroke-width:0.806146" />
  <path
     d="m 145.37431,60.781605 h -1.4164 c -1.33901,0 -2.362,-0.236604 -3.07061,-0.788652 -0.70859,-0.552049 -1.102,-1.656146 -1.102,-3.391052 V 42.485564 c 0,-4.889434 -1.4962,-8.832535 -4.40881,-11.908141 -2.9126,-3.075688 -7.71481,-4.573991 -14.32843,-4.573991 -5.98321,0 -10.62742,1.340621 -13.85523,3.943101 -3.2278,2.68124 -5.19641,6.308896 -5.747,10.961807 h 10.47021 c 0.70861,-4.652911 3.70021,-6.939866 8.81763,-6.939866 3.0698,0 5.27461,0.788572 6.45561,2.365877 1.18019,1.577224 1.8106,3.785338 1.8106,6.624422 v 1.182857 h -8.50242 c -6.69181,0 -11.80922,1.182938 -15.27324,3.627655 -3.464,2.444799 -5.19561,5.757009 -5.19561,9.936632 0,4.258546 1.57441,7.413074 4.72322,9.463506 3.14961,2.129273 6.84982,3.154448 11.17963,3.154448 6.69181,0 11.65121,-2.365877 14.72182,-7.17647 0.7078,2.287036 1.8888,3.9431 3.54221,4.810593 1.65341,0.946335 4.09361,1.419542 7.47942,1.419542 h 3.6994 z m -27.00266,1.577224 c -2.362,0 -4.1726,-0.552048 -5.4318,-1.577224 -1.3382,-1.025256 -1.96861,-2.365876 -1.96861,-4.022021 0,-3.86426 3.62201,-5.83577 10.94343,-5.83577 h 7.24241 c 0,3.9431 -1.023,6.861025 -3.1488,8.674853 -2.12581,1.813828 -4.64502,2.760162 -7.63663,2.760162 z"
     fill="#ffffff"
     id="path263"
     style="stroke-width:0.806146" />
  <path
     d="m 152.13788,12.28139 v 10.173228 h 10.78541 V 12.28139 Z m 0,14.668377 v 42.427769 h 10.78541 V 26.949767 Z"
     fill="#ffffff"
     id="path265"
     style="stroke-width:0.806146" />
  <path
     d="m 172.11014,12.28139 v 57.096146 h 10.78542 V 57.153949 l 5.51081,-5.678087 12.20263,17.901674 h 12.75322 L 195.72779,43.668503 211.78782,26.949767 H 198.48319 L 182.89556,43.353058 V 12.28139 Z"
     fill="#ffffff"
     id="path267"
     style="stroke-width:0.806146" />
  <path
     d="M 218.48527,12.28139 V 22.454618 H 229.2707 V 12.28139 Z m 0,14.668377 V 69.377536 H 229.2707 V 26.949767 Z"
     fill="#ffffff"
     id="path269"
     style="stroke-width:0.806146" />
  <path
     d="m 279.69915,12.28139 h -10.78543 v 20.898432 c -2.91261,-4.810594 -7.40042,-7.17639 -13.30463,-7.17639 -5.58982,0 -10.15582,1.97151 -13.54083,5.993452 -3.385,4.022022 -5.11741,9.463505 -5.11741,16.166768 0,6.703262 1.73241,12.065905 5.11741,16.087846 3.38501,4.021942 7.95101,6.072373 13.54083,6.072373 5.90421,0 10.39202,-2.365877 13.30463,-7.17647 v 6.230135 h 10.78543 z M 258.5217,61.727939 c -3.54221,0 -6.14041,-1.261859 -7.95102,-3.864259 -1.8106,-2.523558 -2.6764,-5.756928 -2.6764,-9.700028 0,-3.943101 0.8658,-7.17647 2.6764,-9.77895 1.81061,-2.6024 4.40881,-3.864179 7.95102,-3.864179 3.464,0 6.14041,1.261779 8.10902,3.706496 1.8896,2.523559 2.8344,5.835769 2.8344,9.936633 0,4.100782 -0.9448,7.412993 -2.8344,9.857711 -1.96861,2.444798 -4.64502,3.706576 -8.10902,3.706576 z"
     fill="#ffffff"
     id="path271"
     style="stroke-width:0.806146" />
  <path
     d="m 307.63934,70.323871 c 6.61282,0 11.80923,-1.97151 15.66664,-5.993532 3.77841,-4.021941 5.66802,-9.384583 5.66802,-16.166687 0,-6.782184 -1.88961,-12.144746 -5.66802,-16.166768 -3.85741,-4.021942 -9.05382,-5.993452 -15.66664,-5.993452 -6.69181,0 -11.88742,1.97151 -15.66663,5.993452 -3.77841,4.022022 -5.66801,9.384584 -5.66801,16.166768 0,6.782104 1.8896,12.144746 5.66801,16.166687 3.77921,4.022022 8.97482,5.993532 15.66663,5.993532 z m 0,-8.595932 c -3.385,0 -5.9042,-1.182938 -7.71481,-3.548814 -1.8106,-2.287035 -2.67721,-5.678087 -2.67721,-10.015473 0,-4.337467 0.86661,-7.728519 2.67721,-10.094395 1.81061,-2.365796 4.32981,-3.548734 7.71481,-3.548734 3.38501,0 5.90421,1.182938 7.71482,3.548734 1.8106,2.365876 2.67721,5.756928 2.67721,10.094395 0,4.337386 -0.86661,7.728438 -2.67721,10.015473 -1.81061,2.365876 -4.32981,3.548814 -7.71482,3.548814 z"
     fill="#ffffff"
     id="path273"
     style="stroke-width:0.806146" />
</svg>
