<?xml version="1.0" encoding="UTF-8" standalone="no"?>
<!-- Generator: Adobe Illustrator 23.0.3, SVG Export Plug-In . SVG Version: 6.00 Build 0)  -->

<svg
   version="1.1"
   id="Layer_1"
   x="0px"
   y="0px"
   viewBox="0 0 800.5 196.2"
   style="enable-background:new 0 0 800.5 196.2;"
   xml:space="preserve"
   sodipodi:docname="dd_logo_h_white.svg"
   inkscape:version="1.1.1 (3bf5ae0d25, 2021-09-20)"
   xmlns:inkscape="http://www.inkscape.org/namespaces/inkscape"
   xmlns:sodipodi="http://sodipodi.sourceforge.net/DTD/sodipodi-0.dtd"
   xmlns="http://www.w3.org/2000/svg"
   xmlns:svg="http://www.w3.org/2000/svg"><defs
   id="defs403" /><sodipodi:namedview
   id="namedview401"
   pagecolor="#ffffff"
   bordercolor="#666666"
   borderopacity="1.0"
   inkscape:pageshadow="2"
   inkscape:pageopacity="0.0"
   inkscape:pagecheckerboard="0"
   showgrid="false"
   inkscape:zoom="1.8126171"
   inkscape:cx="400.25"
   inkscape:cy="98.200551"
   inkscape:window-width="3840"
   inkscape:window-height="2054"
   inkscape:window-x="-11"
   inkscape:window-y="-11"
   inkscape:window-maximized="1"
   inkscape:current-layer="Layer_1" />
<style
   type="text/css"
   id="style376">
	.st0{fill:#FFFFFF;}
	.st1{fill-rule:evenodd;clip-rule:evenodd;fill:#FFFFFF;}
</style>
<g
   id="g398"
   transform="matrix(0.83372489,0,0,0.83372489,25.738203,17.033571)">
	<g
   id="g380">
		<path
   class="st0"
   d="m 167.2,98.4 -54.9,10 c -1.4,1.8 -4.7,4.8 -6.3,5.6 -6.9,3.5 -11.6,2.5 -15.7,1.4 -2.6,-0.7 -4.1,-1 -6.3,-2 l -13.4,1.8 8.1,67.9 94.1,-17 z m -83.8,78.3 -0.8,-7.4 15.4,-23.4 17.4,5.1 15,-25.1 18,11.9 13.7,-28.7 4.9,52.2 z M 79.5,110 C 72.7,105.6 65.7,99.4 62.6,95.9 c -0.5,-0.4 -0.4,-2.1 -0.4,-2.1 2.8,2.2 14.3,10.4 26.4,14.1 4.3,1.3 10.9,1.8 16.6,-1.4 4.4,-2.5 9.6,-6.8 12.7,-11.2 l 0.6,1 c 0,0.7 -1.5,3.9 -2.2,5.2 1.3,0.8 2.3,1 3.8,1.4 l 10.1,-1.6 c 3.6,-5.8 6.2,-15.2 3.4,-24.2 -1.6,-5.1 -9.8,-15.4 -10.4,-15.9 -2.1,-2 0.3,-9.6 -3.7,-18 -4.3,-8.8 -15.6,-18 -20.5,-22.1 1.4,1 10.3,4.6 14.4,9.6 0.4,-0.5 0.6,-3.2 0.9,-3.9 -3.6,-4.6 -3.8,-12.9 -3.8,-15.1 0,-4.1 -2.1,-8.7 -2.1,-8.7 0,0 3.6,2.8 4.5,7.7 1.1,5.7 3.4,10.3 6.5,14.1 5.8,7.2 11,10.9 13.7,8.2 3.2,-3.2 -3.2,-17.5 -11.3,-25.5 -9.5,-9.3 -12,-8.1 -17.5,-6.1 -4.4,1.5 -6.8,14.2 -18.4,13.9 -2,-0.2 -7,-0.4 -9.5,-0.3 1.3,-1.8 2.4,-3.2 2.4,-3.2 0,0 -3.9,1.6 -7.2,3.6 L 71.3,15 c 1.1,-2.4 2.3,-3.8 2.3,-3.8 0,0 -3.1,1.9 -5.9,4.1 0.5,-2.8 2.5,-4.6 2.5,-4.6 0,0 -3.9,0.7 -8.9,6.2 -5.7,1.5 -7,2.6 -11.6,4.6 C 42.3,19.9 38.9,17.3 35.6,12.5 33.1,8.9 28.6,8.3 24,10.2 17.3,13 8.9,16.7 8.9,16.7 c 0,0 2.8,-0.1 5.6,0 -3.9,1.5 -7.7,3.5 -7.7,3.5 0,0 1.8,-0.1 4.1,0 -1.6,1.3 -2.4,1.9 -3.9,2.9 -3.6,2.6 -6.5,5.6 -6.5,5.6 0,0 2.4,-1.1 4.6,-1.7 -1.5,3.5 -4.6,6.1 -4,10.4 0.5,3.9 5.3,12 11.6,17 0.5,0.4 9,8.3 15.4,5.1 C 34.5,56.3 37,53.4 38.1,49 39.3,43.9 38.6,40.1 36,29.1 35.1,25.5 32.9,18 31.8,14.5 L 32,14.3 c 2.1,4.4 7.4,16.1 9.6,23.9 3.4,12.2 2.3,18.4 0.8,20.7 -4.7,6.8 -16.6,7.8 -22,4 -0.8,13.1 2.1,18.9 3.1,21.8 -0.5,3.3 1.7,9.6 1.7,9.6 0,0 0.2,-2.8 1.2,-4.3 0.3,3.3 1.9,7.3 1.9,7.3 0,0 -0.1,-2.4 0.7,-4.5 1.1,1.8 1.9,2.2 2.9,3.6 1,3.6 3,6.2 3,6.2 0,0 -0.3,-1.9 -0.2,-3.9 5,4.8 5.8,11.8 6.3,17.1 1.4,14.7 -23.2,26.4 -28,35.6 -3.6,5.4 -5.8,14.1 0.3,19.2 14.8,12.3 9.1,15.7 16.5,21.1 10.2,7.4 22.9,4.1 27.2,-1.9 6,-8.4 4.5,-16.3 2.2,-23.7 -1.8,-5.8 -6.5,-15.4 -12.4,-19.1 -6,-3.8 -11.9,-4.5 -16.8,-4 l 0.5,-0.5 c 7.1,-1.4 14.6,-0.6 20,2.8 6.1,3.9 11.7,10.7 14.6,21 3.3,-0.5 3.8,-0.7 6.8,-1.1 L 65,111.6 Z m 34.3,-66.7 c 6.3,2.9 5.5,8.5 5.6,11.8 0.1,0.9 0,1.6 -0.1,2 -0.9,-0.5 -2.2,-0.8 -4.4,-0.7 -0.6,0 -1.3,0.1 -1.9,0.2 -2.3,-1.2 -3.7,-3.7 -5,-6.3 -0.1,-0.2 -0.2,-0.5 -0.3,-0.7 0,-0.1 -0.1,-0.2 -0.1,-0.3 0,0 0,-0.1 0,-0.1 -0.7,-2.2 -0.2,-2.7 0.1,-3.3 0.3,-0.6 1.4,-1.3 -0.2,-1.8 -0.1,0 -0.3,-0.1 -0.5,-0.1 1.1,-1.4 4.4,-1.8 6.8,-0.7 z M 106,79.9 c 1.2,-0.9 6.8,-2.7 12,-3.4 2.7,-0.3 6.6,-0.5 7.4,0 1.6,0.9 1.6,3.7 0.5,6.3 -1.6,3.8 -3.9,7.9 -6.6,8.2 -4.3,0.6 -8.3,-1.7 -12.9,-5.2 -1.6,-1.2 -2.6,-4.2 -0.4,-5.9 z M 65.6,51.4 c 6.8,-4.6 15.5,-2.8 14,-1.4 -2.8,2.7 0.9,1.9 1.3,6.8 0.3,3.6 -0.9,5.6 -1.9,6.7 -2.1,0.3 -4.7,0.8 -7.8,1.8 -1.8,0.6 -3.4,1.2 -4.8,1.9 C 66,67 65.6,66.7 65.2,66.3 60.5,62.1 60.7,54.8 65.6,51.4 Z"
   id="path378" />
	</g>
	<g
   id="g396">
		<path
   class="st1"
   d="M 249.2,141.8 H 211 v -88 h 38.2 c 27.5,0 41.3,13.9 41.3,41.6 0,30.9 -13.7,46.4 -41.3,46.4 z m -21.8,-14.2 h 19.4 c 18.3,0 27.4,-10.7 27.4,-32.2 0,-18.3 -9.1,-27.4 -27.4,-27.4 h -19.4 z"
   id="path382" />
		<polygon
   class="st1"
   points="332.8,103.7 351.1,103.7 336.7,70.6 307.6,141.8 290.9,141.8 328.3,53.8 345.9,53.8 384.1,141.8 366.5,141.8 355.4,117.8 327.2,117.8 "
   id="polygon384" />
		<polygon
   class="st1"
   points="416.5,68 416.5,141.8 400.1,141.8 400.1,68 374.8,68 374.8,53.8 441.7,53.8 441.7,68 "
   id="polygon386" />
		<polygon
   class="st1"
   points="475.2,103.7 493.5,103.7 479.1,70.6 450.1,141.8 433.3,141.8 470.8,53.8 488.3,53.8 526.5,141.8 509,141.8 497.9,117.8 469.6,117.8 "
   id="polygon388" />
		<path
   class="st1"
   d="m 575.6,141.8 h -38.2 v -88 h 38.2 c 27.5,0 41.3,13.9 41.3,41.6 0,30.9 -13.8,46.4 -41.3,46.4 z m -21.9,-14.2 h 19.4 c 18.3,0 27.4,-10.7 27.4,-32.2 0,-18.3 -9.2,-27.4 -27.4,-27.4 h -19.4 z"
   id="path390" />
		<path
   class="st1"
   d="m 628,97.9 c 0,-29.8 14.8,-44.7 44.3,-44.7 29,0 43.6,14.9 43.6,44.7 0,29.7 -14.5,44.5 -43.6,44.5 -28.3,0 -43,-14.8 -44.3,-44.5 z m 44.2,30.3 c 17.7,0 26.6,-10.2 26.6,-30.7 0,-20.2 -8.9,-30.2 -26.6,-30.2 -18.2,0 -27.3,10.1 -27.3,30.2 0,20.5 9.1,30.7 27.3,30.7 z"
   id="path392" />
		<path
   class="st1"
   d="m 783.9,106.2 v 20.6 c -3.8,1 -7.1,1.5 -10.1,1.5 -20,0 -30,-10.6 -30,-31.7 0,-19.5 10.6,-29.2 31.7,-29.2 8.8,0 17,1.6 24.7,4.9 V 57.5 c -7.6,-2.9 -16.2,-4.3 -25.9,-4.3 -31.6,0 -47.5,14.4 -47.5,43.4 0,30.6 15.5,45.8 46.7,45.8 10.7,0 19.6,-1.6 26.7,-4.7 v -46 h -26.4 l -5.5,14.5 z"
   id="path394" />
	</g>
</g>
</svg>
