<?xml version="1.0" encoding="UTF-8" standalone="no"?>
<svg
   width="700px"
   height="200px"
   viewBox="0 0 256 256"
   version="1.1"
   preserveAspectRatio="xMidYMid"
   id="svg31"
   sodipodi:docname="datadog.svg"
   inkscape:version="1.1.1 (3bf5ae0d25, 2021-09-20)"
   xmlns:inkscape="http://www.inkscape.org/namespaces/inkscape"
   xmlns:sodipodi="http://sodipodi.sourceforge.net/DTD/sodipodi-0.dtd"
   xmlns="http://www.w3.org/2000/svg"
   xmlns:svg="http://www.w3.org/2000/svg"
   xmlns:rdf="http://www.w3.org/1999/02/22-rdf-syntax-ns#"
   xmlns:cc="http://creativecommons.org/ns#"
   xmlns:dc="http://purl.org/dc/elements/1.1/">
  <defs
     id="defs35" />
  <sodipodi:namedview
     id="namedview33"
     pagecolor="#ffffff"
     bordercolor="#666666"
     borderopacity="1.0"
     inkscape:pageshadow="2"
     inkscape:pageopacity="0.0"
     inkscape:pagecheckerboard="0"
     showgrid="false"
     inkscape:zoom="3.4101562"
     inkscape:cx="201.01719"
     inkscape:cy="127.85338"
     inkscape:window-width="3840"
     inkscape:window-height="2054"
     inkscape:window-x="2549"
     inkscape:window-y="-11"
     inkscape:window-maximized="1"
     inkscape:current-layer="g29" />
  <title
     id="title23">Datadog</title>
  <g
     fill="#c3c3c3"
     id="g29">
    <path
       d="M -28.839067,176.24008 H -68.981686 V 83.827686 h 40.142619 c 28.92093887,0 43.400764,14.564952 43.400764,43.687124 0,32.46544 -14.47982513,48.72527 -43.400764,48.72527 m -22.977332,-14.87453 h 20.384737 c 19.216137,0 28.8126038,-11.28358 28.8126038,-33.86622 0,-19.22389 -9.5964668,-28.835825 -28.8126038,-28.835825 h -20.384737 z m 84.363733,14.87453 H 14.925442 L 54.232235,83.827686 H 72.682211 L 112.84804,176.24008 H 94.38259 L 82.727539,151.03389 H 53.063634 l 5.897177,-14.85132 H 78.200166 L 63.039314,101.46505 Z M 103.14323,83.827686 h 70.27086 V 98.686723 H 146.86131 V 176.24008 H 129.70376 V 98.686723 H 103.1355 l 0.008,-14.859037 z m 79.09341,92.412394 h -17.62188 l 39.31453,-92.412394 h 18.44998 l 40.15809,92.412394 h -18.46545 l -11.65506,-25.20619 h -29.6639 l 5.88171,-14.85132 h 19.23935 l -15.16085,-34.71752 z m 131.82753,0 H 273.92154 V 83.827686 h 40.14263 c 28.93643,0 43.40077,14.564952 43.40077,43.687124 0,32.46544 -14.46434,48.72527 -43.40077,48.72527 m -22.98506,-14.87453 h 20.40021 c 19.20066,0 28.82034,-11.28358 28.82034,-33.86622 0,-19.22389 -9.61968,-28.835825 -28.82034,-28.835825 h -20.40021 z m 78.0022,-31.20398 c 0,-31.335543 15.51686,-46.999445 46.51189,-46.999445 30.52292,0 45.77665,15.663902 45.77665,46.999445 0,31.14981 -15.25373,46.74406 -45.77665,46.74406 -29.62521,-0.008 -45.11111,-15.59425 -46.51189,-46.74406 m 46.51189,31.84632 c 18.64344,0 27.96902,-10.74184 27.96902,-32.241 0,-21.16641 -9.32558,-31.761207 -27.96902,-31.761207 -19.13103,0 -28.68879,10.594797 -28.68879,31.761207 0.008,21.49916 9.56551,32.241 28.68879,32.241 m 117.38638,-23.16307 v 21.63073 c -3.96241,1.03704 -7.51465,1.54009 -10.61802,1.54009 -20.99612,0 -31.47484,-11.09011 -31.47484,-33.27806 0,-20.48536 11.12879,-30.724157 33.3477,-30.724157 9.2869,0 17.91599,1.725816 25.90272,5.177437 V 87.674009 c -7.979,-3.010502 -17.04147,-4.527363 -27.19514,-4.527363 -33.23936,0 -49.87065,15.184079 -49.87065,45.583204 0,32.08624 16.34494,48.16031 49.02709,48.16031 11.24488,0 20.58595,-1.64068 28.04643,-4.92207 v -48.34605 h -27.71365 l -5.79658,15.20731 h 16.34494 v 0.0151 z"
       id="path25"
       style="stroke-width:2.41846" />
    <path
       d="m -137.1088,170.76677 -16.48163,-10.87325 -13.74927,22.9675 -15.99137,-4.6747 -14.08027,21.49046 0.72135,6.76377 76.55933,-14.10838 -4.44672,-47.83669 z m -71.39438,-20.62233 12.28472,-1.68938 c 1.98604,0.89309 3.3694,1.23346 5.75201,1.83927 3.7129,0.96491 8.00662,1.89235 14.36757,-1.31153 1.48016,-0.73385 4.56538,-3.55365 5.81135,-5.16184 l 50.32549,-9.12767 5.13373,62.13558 -86.22098,15.53858 z m 93.48126,-22.38978 -4.96823,0.94617 -9.54298,-98.602502 -162.6148,18.854887 20.03527,162.574225 19.036,-2.7636 c -1.52075,-2.17028 -3.88777,-4.79648 -7.92855,-8.15649 -5.60525,-4.65596 -3.62546,-12.56889 -0.3154,-17.56523 4.37492,-8.44066 26.91772,-19.16716 25.64054,-32.65724 -0.45904,-4.90575 -1.23659,-11.28857 -5.79261,-15.66661 -0.17176,1.81743 0.13743,3.56301 0.13743,3.56301 0,0 -1.87051,-2.38574 -2.80108,-5.63648 -0.92431,-1.24907 -1.6519,-1.64566 -2.63555,-3.31318 -0.70261,1.9267 -0.60893,4.16255 -0.60893,4.16255 0,0 -1.53013,-3.61296 -1.77681,-6.66384 -0.90559,1.36462 -1.13355,3.95647 -1.13355,3.95647 0,0 -1.98605,-5.69582 -1.53325,-8.76543 -0.90558,-2.66992 -3.59423,-7.96915 -2.83541,-20.0103 4.96198,3.47558 15.88832,2.65119 20.14456,-3.622328 1.41146,-2.079721 2.38262,-7.750552 -0.70574,-18.929832 -1.98292,-7.166605 -6.8918,-17.840009 -8.80602,-21.890156 l -0.22796,0.165505 c 1.00864,3.263225 3.08835,10.098824 3.88778,13.418258 2.41697,10.055107 3.06337,13.558781 1.92982,18.195996 -0.96492,4.031411 -3.27884,6.666973 -9.14327,9.614806 -5.86444,2.957201 -13.64935,-4.240633 -14.13962,-4.637215 -5.69892,-4.540413 -10.10819,-11.944344 -10.59846,-15.544821 -0.51211,-3.93773 2.27022,-6.301617 3.67231,-9.521125 -2.0079,0.571455 -4.24376,1.592579 -4.24376,1.592579 0,0 2.6699,-2.763593 5.96124,-5.15246 1.36462,-0.902463 2.16404,-1.47704 3.60048,-2.669912 -2.07971,-0.03436 -3.7691,0.02498 -3.7691,0.02498 0,0 3.46933,-1.873623 7.06355,-3.238245 -2.62932,-0.115533 -5.14933,-0.01874 -5.14933,-0.01874 0,0 7.74118,-3.463079 13.85232,-6.001836 4.20315,-1.723733 8.30952,-1.214734 10.6172,2.123438 3.02902,4.371784 6.21105,6.74504 12.95296,8.215834 4.14071,-1.836151 5.39604,-2.776085 10.59846,-4.196915 4.57789,-5.036921 8.17212,-5.686443 8.17212,-5.686443 0,0 -1.78307,1.636296 -2.26083,4.206282 2.59495,-2.045372 5.43975,-3.75349 5.43975,-3.75349 0,0 -1.10232,1.358376 -2.1297,3.519287 l 0.23734,0.355988 c 3.02901,-1.817414 6.58889,-3.247613 6.58889,-3.247613 0,0 -1.01799,1.286555 -2.21086,2.950956 2.28582,-0.01874 6.91678,0.09681 8.71546,0.29978 10.61406,0.234202 12.81557,-11.332292 16.88758,-12.784349 5.09937,-1.820537 7.37895,-2.922852 16.06944,5.61462 7.45389,7.332109 13.28085,20.447466 10.38612,23.38593 -2.42636,2.438832 -7.21034,-0.952424 -12.51269,-7.560066 -2.80106,-3.500551 -4.92138,-7.638134 -5.9144,-12.896768 -0.83689,-4.437361 -4.09698,-7.010469 -4.09698,-7.010469 0,0 1.88923,4.21565 1.88923,7.928545 0,2.029758 0.25294,9.614805 3.5068,13.874174 -0.32165,0.621418 -0.47153,3.078986 -0.82752,3.550514 -3.78471,-4.574761 -11.91312,-7.847355 -13.24026,-8.812271 4.48732,3.675423 14.79849,12.119215 18.75808,20.216387 3.74725,7.653746 1.5395,14.670463 3.43497,16.484755 0.54023,0.51837 8.05658,9.88648 9.5024,14.59239 2.52313,8.20022 0.14982,16.822 -3.15082,22.16808 l -9.22135,1.43644 c -1.349,-0.37473 -2.25772,-0.56209 -3.4662,-1.26157 0.66826,-1.18037 1.99229,-4.12196 2.00478,-4.7309 l -0.52149,-0.91183 c -2.86976,4.06576 -7.67561,8.01286 -11.66954,10.27995 -5.22741,2.96343 -11.2511,2.5044 -15.17321,1.29279 -11.12933,-3.43184 -21.65596,-10.95443 -24.19472,-12.93111 0,0 -0.0781,1.57696 0.39971,1.93295 2.80418,3.16642 9.23384,8.89035 15.45114,12.88427 l -13.24964,1.45831 6.26416,48.76727 c -2.7761,0.39659 -3.21014,0.59333 -6.24854,1.02427 -2.67928,-9.46493 -7.80365,-15.64476 -13.40577,-19.24523 -4.94012,-3.1758 -11.75386,-3.8909 -18.27406,-2.5981 l -0.41844,0.48714 c 4.53416,-0.47153 9.88648,0.18425 15.38556,3.66606 5.39603,3.41311 9.74595,12.22851 11.34789,17.53398 2.05162,6.78251 3.46933,14.03967 -2.0516,21.7309 -3.92524,5.46785 -15.38557,8.48751 -24.64751,1.95169 2.47319,3.97832 5.81447,7.22906 10.31742,7.84111 6.68259,0.9087 13.02479,-0.25294 17.39034,-4.73402 3.72537,-3.83156 5.70518,-11.84442 5.18368,-20.28195 l 5.8988,-0.85564 2.12968,15.14512 97.63132,-11.75698 z m -59.40007,-41.129144 c -0.27167,0.621418 -0.70261,1.030491 -0.0594,3.054004 l 0.0374,0.115533 0.103,0.262309 0.26855,0.605804 c 1.15853,2.370132 2.42946,4.602866 4.55915,5.745774 0.54959,-0.09368 1.12104,-0.156134 1.71125,-0.184238 1.99851,-0.08743 3.26009,0.227957 4.05639,0.65889 0.0719,-0.399705 0.0874,-0.980529 0.0436,-1.839273 -0.15614,-3.000918 0.59331,-8.103416 -5.17433,-10.788942 -2.17652,-1.008633 -5.23053,-0.699485 -6.24852,0.562087 0.18424,0.02498 0.34974,0.06245 0.48089,0.10617 1.54262,0.533982 0.49963,1.064841 0.22172,1.701873 m 16.16936,27.998163 c -0.75569,-0.41844 -4.2906,-0.25294 -6.77628,0.0436 -4.73402,0.55897 -9.84588,2.19838 -10.96381,3.07274 -2.036,1.57384 -1.11169,4.31557 0.39346,5.44288 4.21878,3.1508 7.91606,5.26487 11.81632,4.74962 2.39511,-0.31539 4.50918,-4.10948 6.00495,-7.5507 1.02424,-2.37012 1.02424,-4.92762 -0.47464,-5.75827 m -41.90966,-24.285179 c 1.33342,-1.267816 -6.64823,-2.932218 -12.84367,1.2928 -4.56851,3.116459 -4.71529,9.799049 -0.34037,13.586889 0.43718,0.37472 0.79941,0.64015 1.13353,0.85874 1.27719,-0.60268 2.73237,-1.20849 4.40927,-1.75183 2.82916,-0.91809 5.18369,-1.39273 7.11663,-1.64567 0.92433,-1.03362 2.00166,-2.854153 1.73311,-6.151729 -0.36848,-4.474835 -3.7535,-3.76598 -1.2085,-6.1892"
       id="path27"
       style="stroke-width:0.97584" />
  </g>
  <metadata
     id="metadata117">
    <rdf:RDF>
      <cc:Work
         rdf:about="">
        <dc:title>Datadog</dc:title>
      </cc:Work>
    </rdf:RDF>
  </metadata>
</svg>
