<?xml version="1.0" encoding="UTF-8" standalone="no"?>
<svg
   id="Logos_colored"
   viewBox="0 0 278.51 94.55"
   version="1.1"
   sodipodi:docname="private-packagist.svg"
   inkscape:version="1.1.1 (3bf5ae0d25, 2021-09-20)"
   xmlns:inkscape="http://www.inkscape.org/namespaces/inkscape"
   xmlns:sodipodi="http://sodipodi.sourceforge.net/DTD/sodipodi-0.dtd"
   xmlns="http://www.w3.org/2000/svg"
   xmlns:svg="http://www.w3.org/2000/svg">
  <sodipodi:namedview
     id="namedview125"
     pagecolor="#ffffff"
     bordercolor="#666666"
     borderopacity="1.0"
     inkscape:pageshadow="2"
     inkscape:pageopacity="0.0"
     inkscape:pagecheckerboard="0"
     showgrid="false"
     inkscape:zoom="6.5114359"
     inkscape:cx="218.76895"
     inkscape:cy="72.027124"
     inkscape:window-width="3840"
     inkscape:window-height="2054"
     inkscape:window-x="-11"
     inkscape:window-y="-11"
     inkscape:window-maximized="1"
     inkscape:current-layer="Logos_colored" />
  <defs
     id="defs70">
    <style
       id="style68">.cls-1{fill:#e0743f;}.cls-2{fill:#c15934;}.cls-3{fill:#e58b59;}.cls-4{fill:#fff;}</style>
  </defs>
  <path
     class="cls-1"
     d="m 7.4693129,50.946867 v 8.018752 L 1.0682772,55.567251 C 0.83551229,55.450868 0.69585333,55.218103 0.69585333,54.962062 c 0,-0.256041 0.13965896,-0.488806 0.37242387,-0.605189 l 6.4010357,-3.398368 z"
     id="path72"
     style="stroke-width:1.16382" />
  <path
     class="cls-2"
     d="m 49.797616,51.598609 v 23.904958 c 0,0.570275 -0.442253,1.012528 -1.012527,1.012528 H 44.874638 V 53.37926 l 4.189769,-1.931949 0.733209,0.162936 z"
     id="path74"
     style="stroke-width:1.16382" />
  <path
     class="cls-1"
     d="m 77.066028,49.177853 c 0,0 -0.08147,0.03491 -0.116382,0.03491 -0.02328,0 -0.04655,0 -0.06983,-0.02328 l -7.63469,-0.896145 4.632022,-5.283764 c 0,0 0.05819,-0.116383 0.05819,-0.174574 0.896145,1.675907 3.107412,5.760932 3.235433,6.005335 0,0.01164 0.01164,0.02328 0.02328,0.04655 0.04655,0.116383 0,0.244403 -0.116382,0.302595 z"
     id="path76"
     style="stroke-width:1.16382" />
  <path
     class="cls-2"
     d="M 25.857743,70.17325 17.71097,78.320023 C 17.466567,78.587703 17.105781,78.739 16.721719,78.739 H 8.8659026 c -0.7681243,0 -1.3965897,-0.628465 -1.3965897,-1.408228 V 35.99172 c 0,-0.477168 0.232765,-0.907783 0.6284654,-1.175463 L 21.260635,26.180678 c 0.221127,-0.151297 0.500445,-0.232765 0.779763,-0.232765 h 3.817345 c 0,0 0,0 0.01164,0 -0.01164,0 -0.02328,0 -0.03492,0 -0.05819,0 -0.116382,0.02328 -0.151297,0.06983 l -5.004446,5.504891 c -0.256041,0.290956 -0.3957,0.66338 -0.3957,1.024166 v 5.027722 L 9.2732412,43.719516 c -0.2444032,0.139659 -0.4189769,0.360785 -0.4771681,0.628465 -0.069829,0.279318 -0.011638,0.570274 0.1512972,0.803039 l 16.0142277,23.29977 0.93106,1.408228 c 0.05819,0.09311 0.04655,0.209488 -0.03492,0.290956 z"
     id="path78"
     style="stroke-width:1.16382" />
  <path
     class="cls-1"
     d="m 44.874638,53.367622 v 24.451957 c 0,0.244403 -0.08147,0.477168 -0.244403,0.651741 -0.174574,0.186212 -0.418977,0.290957 -0.675019,0.290957 H 32.561373 c -0.325871,0 -0.640104,-0.162936 -0.826316,-0.430616 L 24.961598,68.485705 8.9473703,45.185935 C 8.7844348,44.941532 8.7378818,44.650575 8.7960731,44.382896 8.8659026,44.115216 9.028838,43.882451 9.2732412,43.75443 L 20.283023,37.609436 v 14.73402 c 0,0.558636 0.442253,1.012528 0.989251,1.012528 l 23.136834,0.104744 h 0.244403 c 0,0 0,0 0,0 0.01164,0 0.03491,0 0.04655,0 0.01164,0 0.03492,0 0.04655,-0.01164 0,0 0.01164,0 0.02328,0 l 0.09311,-0.04655 z"
     id="path80"
     style="stroke-width:1.16382" />
  <path
     class="cls-1"
     d="m 44.874638,53.297793 v 0.06983 l -0.09311,0.04655 c 0,0 0.06983,-0.05819 0.08147,-0.09311 0,0 0,-0.01164 0,-0.02328 z"
     id="path82"
     style="stroke-width:1.16382" />
  <path
     class="cls-2"
     d="M 47.842391,22.968522 H 33.923048 v -6.70363 c 0,-0.162936 0.08147,-0.314233 0.221126,-0.395701 0.04655,-0.04655 0.128021,-0.08147 0.221127,-0.08147 0.08147,0 0.162936,0.01164 0.221127,0.04655 l 13.13958,7.04114 c 0,0 0.08147,0.04655 0.116383,0.08147 z"
     id="path84"
     style="stroke-width:1.16382" />
  <path
     class="cls-2"
     d="m 73.865511,43.009583 -4.632023,5.283764 -5.516529,6.296291 c 0,0 -0.05819,0.05819 -0.09311,0.06983 0.01164,0 0.02328,-0.02328 0.03491,-0.03491 0.05819,-0.08147 0.05819,-0.174574 0,-0.256042 l -4.24796,-6.796736 -0.290956,-1.664269 4.655299,-4.434172 c 0,0 0.116382,-0.06983 0.186212,-0.05819 l 9.75285,1.222016 c 0.08147,0 0.151298,0.06983 0.186212,0.151297 0,0.02328 0,0.04655 0.01164,0.05819 0,0.05819 -0.01164,0.128021 -0.05819,0.174574 z"
     id="path86"
     style="stroke-width:1.16382" />
  <path
     class="cls-1"
     d="m 63.64713,54.624553 c 0,0 -0.02328,0.02328 -0.03491,0.03491 -0.04655,0.03491 -0.09311,0.05819 -0.151297,0.05819 -0.01164,0 -0.03491,0 -0.04655,0 l -13.616749,-3.11905 -0.733209,-0.162936 -4.294513,1.978502 c 0,0 0.06983,-0.05819 0.08147,-0.09311 0.04655,-0.08147 0.03492,-0.174574 -0.01164,-0.244403 L 44.711703,52.902092 26.032317,26.041019 c 0,0 -0.104745,-0.09311 -0.174574,-0.09311 -0.01164,0 -0.02328,0 -0.03491,0 l 6.389398,-2.839732 c 0.221126,-0.116383 0.465529,-0.139659 0.628465,-0.139659 h 15.0017 c 0,0 0.104744,0.01164 0.139659,0.04655 l 7.797625,6.16827 c 0.325871,0.256042 0.53536,0.605189 0.605189,1.012528 l 2.711712,15.699995 0.290956,1.664269 4.24796,6.796736 c 0.04655,0.08147 0.04655,0.186212 0,0.256042 z"
     id="path88"
     style="stroke-width:1.16382" />
  <path
     class="cls-3"
     d="m 44.886276,53.239601 c 0,0 0,0.01164 0,0.02328 0,0 0,0.02328 0,0.03491 0,0 0,0.01164 0,0.02328 -0.02328,0.03491 -0.04655,0.06983 -0.08147,0.09311 0,0 -0.01164,0 -0.02328,0 -0.01164,0 -0.03491,0.01164 -0.04655,0.01164 -0.01164,0 -0.03492,0 -0.04655,0 h -0.244403 c 0,0 -23.136835,-0.116382 -23.136835,-0.116382 -0.546997,0 -0.989251,-0.453892 -0.989251,-1.012528 V 32.523522 c 0,-0.360785 0.139659,-0.733209 0.395701,-1.024165 l 5.004446,-5.504891 c 0,0 0.09311,-0.06983 0.151297,-0.06983 0,0 0.02328,0 0.03491,0 0.02328,0 0.05819,0 0.08147,0.02328 0,0 0.01164,0 0.02328,0.01164 0,0 0.02328,0.01164 0.03492,0.02328 0,0 0.01164,0.01164 0.02328,0.02328 0,0 0,0 0.01164,0.01164 v 0 c 0,0 18.679387,26.861074 18.679387,26.861074 l 0.12802,0.174574 c 0,0 0.04655,0.104744 0.03491,0.162935 z"
     id="path90"
     style="stroke-width:1.16382" />
  <path
     class="cls-4"
     d="m 92.533258,51.412397 c 2.537138,0 4.294513,0.267679 5.947145,1.72246 1.827207,1.617717 2.292737,3.817345 2.292737,5.435061 0,0.872869 -0.13966,3.305263 -1.862122,5.027723 -1.245293,1.245292 -3.107412,1.99014 -5.702741,1.99014 h -2.839732 v 8.344623 H 85.980926 V 51.400758 h 6.552332 z m -2.164713,10.392954 h 1.79229 c 0.849592,0 1.92031,0 2.874646,-0.709933 0.814678,-0.640104 1.210378,-1.652631 1.210378,-2.630244 0,-1.245292 -0.605189,-2.094884 -1.245292,-2.572052 -0.907784,-0.640104 -2.05997,-0.709933 -3.107412,-0.709933 h -1.52461 z"
     id="path92"
     style="stroke-width:1.16382" />
  <path
     class="cls-4"
     d="m 118.5331,69.207276 h -9.08947 l -1.99014,4.725128 h -4.76004 l 9.69466,-22.531646 h 3.44492 l 9.42698,22.531646 h -4.72513 l -1.99014,-4.725128 z m -1.28021,-3.58458 -3.21215,-8.10022 -3.21216,8.10022 h 6.41268 z"
     id="path94"
     style="stroke-width:1.16382" />
  <path
     class="cls-4"
     d="m 145.98773,73.129365 c -1.35004,0.709933 -3.14233,1.315122 -5.57472,1.315122 -3.94537,0 -6.35449,-1.350037 -8.23988,-3.142327 -2.59533,-2.502223 -3.60786,-5.30704 -3.60786,-8.612302 0,-4.085025 1.68755,-7.029501 3.60786,-8.810153 2.25782,-2.129799 5.06263,-2.967753 8.27479,-2.967753 1.5828,0 3.47984,0.26768 5.53981,1.384951 v 5.132467 c -2.05997,-2.362564 -4.63203,-2.537138 -5.43507,-2.537138 -4.52727,0 -7.46011,3.712601 -7.46011,7.867455 0,4.992808 3.85226,7.70452 7.63469,7.70452 2.09488,0 3.94536,-0.907784 5.27212,-2.467309 v 5.132467 z"
     id="path96"
     style="stroke-width:1.16382" />
  <path
     class="cls-4"
     d="m 157.78891,60.932483 8.27479,-9.520086 h 5.53981 l -9.52009,10.404592 10.03217,12.127053 h -5.80749 l -8.00711,-10.101998 -0.51208,0.512083 v 9.589915 h -4.38762 V 51.412397 h 4.38762 z"
     id="path98"
     style="stroke-width:1.16382" />
  <path
     class="cls-4"
     d="m 192.49416,69.207276 h -9.08947 l -1.99014,4.725128 h -4.76004 l 9.69466,-22.531646 h 3.44492 l 9.42698,22.531646 h -4.72513 l -1.99014,-4.725128 z m -1.28021,-3.58458 -3.21215,-8.10022 -3.21216,8.10022 h 6.41267 z"
     id="path100"
     style="stroke-width:1.16382" />
  <path
     class="cls-4"
     d="m 215.03744,61.875181 h 10.33477 v 0.267679 c 0,1.524611 -0.19785,6.249739 -3.30527,9.322236 -2.32764,2.327649 -5.20229,2.967753 -8.00711,2.967753 -2.80482,0 -5.70274,-0.570274 -8.17005,-3.037583 -0.77976,-0.779762 -3.34018,-3.619494 -3.34018,-8.682132 0,-4.352704 1.95523,-7.029501 3.30527,-8.379537 1.68754,-1.722461 4.52728,-3.444921 8.87998,-3.444921 1.68755,0 3.47984,0.267679 5.2023,1.187101 1.45478,0.744848 3.03758,2.094884 4.22468,4.119939 l -3.81735,2.05997 c -0.77976,-1.524611 -1.92031,-2.292735 -2.63024,-2.665159 -0.9427,-0.477168 -2.1298,-0.709933 -3.17724,-0.709933 -1.79229,0 -3.81735,0.640104 -5.2023,1.99014 -1.2802,1.245293 -2.25782,3.410007 -2.25782,5.947145 0,3.002667 1.28021,4.794957 2.23455,5.70274 1.01252,0.977613 2.59533,1.920311 4.9928,1.920311 1.4897,0 3.17725,-0.407338 4.42254,-1.350036 0.87287,-0.675019 1.75737,-1.827205 2.1298,-3.444922 h -5.80749 v -3.78243 z"
     id="path102"
     style="stroke-width:1.16382" />
  <path
     class="cls-4"
     d="m 236.64967,51.412397 v 22.531645 h -4.38762 V 51.412397 Z"
     id="path104"
     style="stroke-width:1.16382" />
  <path
     class="cls-4"
     d="m 255.55018,56.544864 c -1.31512,-1.757376 -2.87465,-1.920311 -3.67769,-1.920311 -2.36256,0 -3.10741,1.489695 -3.10741,2.630244 0,0.535359 0.17458,1.047442 0.70994,1.52461 0.53536,0.512083 1.2802,0.779762 2.70007,1.280207 1.75737,0.605189 3.41001,1.210378 4.56219,2.25782 1.01253,0.907783 1.92031,2.432393 1.92031,4.725128 0,4.387619 -3.17724,7.390287 -7.83254,7.390287 -4.15485,0 -6.58725,-2.537138 -7.76271,-4.259599 l 2.87465,-2.734988 c 1.08236,2.199629 3.14233,3.002668 4.72513,3.002668 1.99014,0 3.47983,-1.210378 3.47983,-3.107412 0,-0.814677 -0.26768,-1.454781 -0.87287,-2.025055 -0.84959,-0.779762 -2.19962,-1.210377 -3.47983,-1.652631 -1.1871,-0.407338 -2.59533,-0.942698 -3.74752,-1.955225 -0.74484,-0.640104 -1.79229,-1.897034 -1.79229,-4.189769 0,-3.305262 2.23455,-6.622162 7.22735,-6.622162 1.41987,0 4.08503,0.267679 6.37776,2.630243 l -2.29273,3.002668 z"
     id="path106"
     style="stroke-width:1.16382" />
  <path
     class="cls-4"
     d="m 272.73987,55.194827 v 18.749215 h -4.38762 V 55.194827 h -5.06264 v -3.78243 h 14.52454 v 3.78243 h -5.06264 z"
     id="path108"
     style="stroke-width:1.16382" />
  <path
     class="cls-4"
     d="m 92.533258,20.105513 c 2.537138,0 4.294513,0.26768 5.947145,1.72246 1.827207,1.617717 2.292737,3.817345 2.292737,5.435062 0,0.872868 -0.13966,3.305262 -1.862122,5.027722 -1.245293,1.245293 -3.107412,1.990141 -5.702741,1.990141 H 90.368545 V 42.62552 H 85.980926 V 20.105513 Z m -2.164713,10.404593 h 1.79229 c 0.849592,0 1.92031,0 2.874646,-0.709933 0.814678,-0.640104 1.210378,-1.652632 1.210378,-2.630244 0,-1.245293 -0.605189,-2.094885 -1.245292,-2.572053 -0.907784,-0.640103 -2.05997,-0.709933 -3.107412,-0.709933 h -1.52461 z"
     id="path110"
     style="stroke-width:1.16382" />
  <path
     class="cls-4"
     d="m 113.35408,20.105513 c 3.10741,0 4.69022,0.814677 5.73766,1.687546 1.72246,1.454781 2.23454,3.375091 2.23454,5.062637 0,2.199629 -0.87287,4.119939 -2.63024,5.307041 -0.57028,0.407338 -1.38495,0.779762 -2.46731,0.977612 l 7.0295,9.485171 h -5.46998 l -6.01697,-9.054556 h -0.53536 V 42.62552 H 106.8483 V 20.105513 h 6.51742 z m -2.1298,10.369678 h 1.2453 c 0.84959,0 4.31778,-0.104744 4.31778,-3.410006 0,-3.305263 -3.44492,-3.375092 -4.25959,-3.375092 h -1.31513 v 6.785098 z"
     id="path112"
     style="stroke-width:1.16382" />
  <path
     class="cls-4"
     d="M 133.3835,20.105513 V 42.62552 h -4.38761 V 20.105513 Z"
     id="path114"
     style="stroke-width:1.16382" />
  <path
     class="cls-4"
     d="m 143.72991,20.105513 6.01697,15.129721 6.01697,-15.129721 h 4.79496 l -9.52009,22.520007 h -2.63024 l -9.45026,-22.520007 h 4.79496 z"
     id="path116"
     style="stroke-width:1.16382" />
  <path
     class="cls-4"
     d="m 177.12004,37.900392 h -9.08947 l -1.99015,4.725128 h -4.76004 l 9.69466,-22.520007 h 3.44492 l 9.42698,22.520007 h -4.72513 l -1.99014,-4.725128 z m -1.29185,-3.572942 -3.21216,-8.100219 -3.21215,8.100219 h 6.41267 z"
     id="path118"
     style="stroke-width:1.16382" />
  <path
     class="cls-4"
     d="M 195.04294,23.887943 V 42.62552 h -4.38762 V 23.887943 h -5.06264 v -3.78243 h 14.52453 v 3.78243 h -5.06264 z"
     id="path120"
     style="stroke-width:1.16382" />
  <path
     class="cls-4"
     d="m 218.2496,23.887943 h -8.10022 v 5.027723 h 7.76271 v 3.78243 h -7.76271 v 6.144994 h 8.10022 v 3.78243 H 205.75012 V 20.105513 h 12.49948 z"
     id="path122"
     style="stroke-width:1.16382" />
</svg>
