<?xml version="1.0" encoding="UTF-8" standalone="no"?>
<!-- Generator: Adobe Illustrator 22.1.0, SVG Export Plug-In . SVG Version: 6.00 Build 0)  -->

<svg
   version="1.1"
   id="Layer_1"
   x="0px"
   y="0px"
   viewBox="0 0 780 122"
   style="enable-background:new 0 0 780 122;"
   xml:space="preserve"
   sodipodi:docname="private-packagist.svg"
   inkscape:version="1.1.1 (3bf5ae0d25, 2021-09-20)"
   xmlns:inkscape="http://www.inkscape.org/namespaces/inkscape"
   xmlns:sodipodi="http://sodipodi.sourceforge.net/DTD/sodipodi-0.dtd"
   xmlns="http://www.w3.org/2000/svg"
   xmlns:svg="http://www.w3.org/2000/svg"><defs
   id="defs287" /><sodipodi:namedview
   id="namedview285"
   pagecolor="#ffffff"
   bordercolor="#666666"
   borderopacity="1.0"
   inkscape:pageshadow="2"
   inkscape:pageopacity="0.0"
   inkscape:pagecheckerboard="0"
   showgrid="false"
   inkscape:zoom="2.9757998"
   inkscape:cx="363.09566"
   inkscape:cy="3.024397"
   inkscape:window-width="3840"
   inkscape:window-height="2054"
   inkscape:window-x="2549"
   inkscape:window-y="-11"
   inkscape:window-maximized="1"
   inkscape:current-layer="Layer_1" />
<style
   type="text/css"
   id="style224">
	.st0{fill:#E0743F;stroke:#E0743F;stroke-width:2.9345;stroke-linecap:round;stroke-linejoin:round;stroke-miterlimit:10;}
	.st1{fill:#C15934;stroke:#C15934;stroke-width:2.9345;stroke-linecap:round;stroke-linejoin:round;stroke-miterlimit:10;}
	.st2{fill:#C15934;}
	.st3{fill:#E58B59;stroke:#E58B59;stroke-width:2.9345;stroke-linecap:round;stroke-linejoin:round;stroke-miterlimit:10;}
	.st4{fill:#fff;}
</style>
<g
   id="g248"
   transform="matrix(1.3464343,0,0,1.3464343,-22.016805,-18.831326)">
	<path
   class="st0"
   d="m 29.5,62.5 -8.2,4.4 c -0.4,0.2 -0.4,0.8 0,1 l 8.2,4.4 c 0.4,0.2 0.9,-0.1 0.9,-0.5 V 63 c 0,-0.4 -0.5,-0.7 -0.9,-0.5 z"
   id="path226" />
	<path
   class="st1"
   d="M 82,94.6 H 76.7 V 65.2 l 5.6,-2.6 0.7,0.2 v 30.9 c 0,0.5 -0.4,0.9 -1,0.9 z"
   id="path228" />
	<path
   class="st0"
   d="m 108,58.6 5.8,-6.6 c 0,0 4.2,7.9 4.2,7.8 z"
   id="path230" />
	<path
   class="st1"
   d="m 46.3,37.7 c -0.2,0.3 -0.4,0.6 -0.4,1 v 5.8 c 0,0.5 -0.3,1.1 -0.8,1.3 L 32.3,53 c -0.8,0.4 -1,1.4 -0.5,2.1 L 52.6,86.5 42.2,97 c -0.3,0.3 -0.6,0.4 -1.1,0.4 h -10 c -0.8,0 -1.5,-0.7 -1.5,-1.5 V 43.2 c 0,-0.5 0.2,-1 0.7,-1.3 l 16.8,-11 c 0.2,-0.2 0.5,-0.2 0.8,-0.2 h 4.9 z"
   id="path232" />
	<path
   class="st0"
   d="M 76.7,96.6 V 65.2 L 46.9,65.1 c -0.5,0 -1,-0.4 -1,-1 V 45.4 l -14.2,7.9 c -0.5,0.3 -0.6,0.9 -0.3,1.4 L 60.5,97 c 0.2,0.3 0.5,0.4 0.8,0.4 h 14.5 c 0.6,0.1 1,-0.3 0.9,-0.8 z"
   id="path234" />
	<g
   id="g240">
		<path
   class="st2"
   d="m 63.6,27.3 c -0.2,0 -0.3,-0.1 -0.3,-0.3 v -9 c 0,-0.1 0.1,-0.2 0.1,-0.3 0.1,0 0.1,0 0.2,0 0,0 0.1,0 0.1,0 l 16.8,9 c 0.1,0.1 0.2,0.2 0.1,0.3 0,0.1 -0.1,0.2 -0.3,0.2 0.1,0.1 -16.7,0.1 -16.7,0.1 z"
   id="path236" />
		<path
   class="st2"
   d="m 63.6,18 16.8,9 H 63.6 v -9 m 0,-0.6 c -0.1,0 -0.2,0 -0.3,0.1 C 63.1,17.6 63,17.8 63,18 v 9 c 0,0.3 0.3,0.6 0.6,0.6 h 16.8 c 0.3,0 0.5,-0.2 0.6,-0.4 0.1,-0.2 -0.1,-0.5 -0.3,-0.7 l -16.8,-9 c -0.1,0 -0.2,-0.1 -0.3,-0.1 z"
   id="path238" />
	</g>
	<polygon
   class="st1"
   points="113.8,52 100.9,66.8 95.3,58.1 95,56.5 101.4,50.4 "
   id="polygon242" />
	<path
   class="st0"
   d="M 82.4,62.6 76.8,65.2 52.8,30.7 61,27 c 0.2,-0.1 0.4,-0.1 0.7,-0.1 h 19.1 l 10,7.9 c 0.4,0.3 0.6,0.7 0.7,1.1 l 3.8,22.2 5.5,8.7 z"
   id="path244" />
	<path
   class="st3"
   d="m 46.9,65 29.8,0.1 -24,-34.5 -6.4,7 C 46.1,38 46,38.4 46,38.8 V 64 c 0,0.6 0.4,1 0.9,1 z"
   id="path246" />
</g>
<g
   id="g282"
   transform="matrix(1.4277276,0,0,1.4277276,-32.737279,-29.567479)">
	<path
   class="st4"
   d="m 140,49.4 c 0.7,0 1.3,0 1.9,0 2.5,0.1 4.7,0.7 6.2,2.9 0.5,0.7 1.3,2.1 1.3,4.4 0,1.1 -0.2,3.4 -2.1,5.3 -1.9,1.8 -4.4,1.8 -6.9,1.8 h -1.7 v 8.8 h -5 V 49.4 Z m -1.2,10.1 h 2 c 0.6,0 1.1,0 1.7,-0.2 1.8,-0.5 2,-2.1 2,-2.8 0,-2 -1.3,-2.7 -2,-2.9 -0.4,-0.1 -0.8,-0.1 -1.6,-0.1 h -2.1 z"
   id="path250" />
	<path
   class="st4"
   d="m 160.1,49.4 c 0.6,0 1.2,0 1.8,0 2.5,0.1 5,0.7 6.4,3 1,1.6 1.1,3.3 1.1,3.9 0,2.1 -0.8,4.4 -2.7,5.6 -0.7,0.4 -1.1,0.6 -2.6,0.9 l 6.7,9.9 h -6 l -6.2,-9.8 v 9.8 h -4.9 V 49.4 Z m -1.3,10.2 h 1.8 c 1.4,0 2.7,-0.1 3.5,-1.5 0.2,-0.3 0.4,-0.8 0.4,-1.7 0,-0.3 0,-1.2 -0.7,-1.9 -0.9,-1 -2.1,-1.1 -3.3,-1.1 h -1.7 z"
   id="path252" />
	<path
   class="st4"
   d="m 180.5,72.7 h -5.1 V 49.4 h 5.1 z"
   id="path254" />
	<path
   class="st4"
   d="m 190.3,49.4 4.5,13.4 c 0.3,1 0.6,2 0.9,3.1 0.2,0.6 0.3,1.2 0.4,1.8 0.4,-1.4 0.7,-2.7 1.1,-4 0.3,-0.9 0.6,-1.8 0.9,-2.7 L 202,49.4 h 5.5 l -9.1,23.3 h -4.9 l -8.7,-23.3 z"
   id="path256" />
	<path
   class="st4"
   d="m 221.5,49.4 9.6,23.3 h -5.5 L 223.8,68 h -9.7 l -1.7,4.7 H 207 l 9.1,-23.3 z m 0.6,14.2 c -0.6,-1.6 -1.2,-3.2 -1.7,-4.7 -1.1,-3 -1.3,-3.8 -1.5,-5.4 -0.1,0.5 -0.1,1 -0.2,1.4 -0.3,1.1 -0.9,3 -1.3,4.1 -0.5,1.5 -1.1,3 -1.6,4.6 z"
   id="path258" />
	<path
   class="st4"
   d="m 246.1,49.4 v 4.5 h -5 v 18.8 h -5 V 53.9 h -5 v -4.6 h 15 z"
   id="path260" />
	<path
   class="st4"
   d="m 263.9,49.4 v 4.5 h -8.2 v 4.6 h 8 V 63 h -8 v 5 h 8.2 v 4.7 H 250.7 V 49.4 Z"
   id="path262" />
	<path
   class="st4"
   d="m 287.1,49.4 c 0.7,0 1.3,0 1.9,0 2.5,0.1 4.7,0.7 6.2,2.9 0.5,0.7 1.3,2.1 1.3,4.4 0,1.1 -0.2,3.4 -2.1,5.3 -1.9,1.8 -4.4,1.8 -6.9,1.8 h -1.7 v 8.8 h -5 V 49.4 Z m -1.2,10.1 h 2 c 0.6,0 1.1,0 1.7,-0.2 1.8,-0.5 2,-2.1 2,-2.8 0,-2 -1.3,-2.7 -2,-2.9 -0.4,-0.1 -0.8,-0.1 -1.6,-0.1 h -2.1 z"
   id="path264" />
	<path
   class="st4"
   d="m 311.4,49.4 9.6,23.3 h -5.5 L 313.7,68 H 304 l -1.7,4.7 h -5.4 L 306,49.4 Z m 0.6,14.2 c -0.6,-1.6 -1.2,-3.2 -1.7,-4.7 -1.1,-3 -1.3,-3.8 -1.5,-5.4 -0.1,0.5 -0.1,1 -0.2,1.4 -0.3,1.1 -0.9,3 -1.3,4.1 -0.5,1.5 -1.1,3 -1.6,4.6 z"
   id="path266" />
	<path
   class="st4"
   d="m 341.5,56.1 c -0.8,-0.7 -3,-2.6 -6.2,-2.6 -0.6,0 -1.9,0 -3.3,0.8 -1.4,0.8 -3.6,2.9 -3.6,6.9 0,0.5 0,1.6 0.5,2.9 0.5,1.6 2.1,4.5 6.5,4.5 0.3,0 0.9,0 1.8,-0.2 0.6,-0.1 2.1,-0.6 3.2,-1.4 0.4,-0.3 0.8,-0.6 1.2,-0.9 v 5.4 c -1.1,0.4 -3.4,1.6 -6.7,1.6 -1.2,0 -4.6,-0.1 -7.3,-2.5 -1.5,-1.3 -4.2,-4.4 -4.2,-9.7 0,-2.1 0.5,-4.5 1.4,-6.4 0.3,-0.5 0.7,-1.3 1.7,-2.3 1.1,-1.2 2.4,-2.2 3.9,-2.7 1.9,-0.7 3.8,-0.8 4.4,-0.8 0.8,0 2.9,0.1 5,0.8 0.6,0.2 1.3,0.5 1.8,0.8 v 5.8 z"
   id="path268" />
	<path
   class="st4"
   d="m 353.3,59.9 7.8,-10.5 h 6 l -8.8,11.1 9.1,12.2 H 361 L 353.1,61.8 V 72.7 H 348 V 49.4 h 5.1 v 10.5 z"
   id="path270" />
	<path
   class="st4"
   d="m 384.4,49.4 9.6,23.3 h -5.5 L 386.7,68 H 377 l -1.7,4.7 h -5.4 L 379,49.4 Z m 0.5,14.2 c -0.6,-1.6 -1.2,-3.2 -1.7,-4.7 -1.1,-3 -1.3,-3.8 -1.5,-5.4 -0.1,0.5 -0.1,1 -0.2,1.4 -0.3,1.1 -0.9,3 -1.3,4.1 -0.5,1.5 -1.1,3 -1.6,4.6 z"
   id="path272" />
	<path
   class="st4"
   d="m 414.3,56.5 c -0.2,-0.2 -0.4,-0.6 -0.9,-1 -0.8,-0.7 -2.5,-2 -5.3,-2 -1.7,0 -3.1,0.5 -4.5,1.6 -2.4,2 -2.5,4.8 -2.5,5.9 0,0.8 0,2.8 1.3,4.8 0.7,1 2.4,3 5.8,3 2.9,0 4.5,-1.5 5.1,-2.3 0.4,-0.6 0.7,-1.2 1,-1.7 h -6.2 v -4.4 h 11.7 c 0,1.3 0.1,5 -2.3,8.3 -3.1,4.3 -7.8,4.6 -9.5,4.6 -0.9,0 -2,-0.1 -2.8,-0.3 -1.6,-0.3 -4.6,-1.2 -6.9,-4.6 -0.9,-1.3 -2.1,-3.5 -2.1,-7.3 0,-1.6 0.2,-2.6 0.3,-3.2 0.2,-0.9 0.9,-3.3 2.7,-5.3 0.3,-0.3 0.9,-0.9 1.7,-1.6 2.1,-1.6 4.6,-2.2 7.3,-2.2 3.6,0 5.8,1.2 7,2 1.1,0.7 1.8,1.5 2.1,1.8 0.5,0.6 0.7,0.9 1.1,1.5 z"
   id="path274" />
	<path
   class="st4"
   d="m 430.3,72.7 h -5.1 V 49.4 h 5.1 z"
   id="path276" />
	<path
   class="st4"
   d="m 447.1,55.5 c -0.3,-0.4 -1.5,-2.2 -3.4,-2.2 -1.3,0 -2.4,0.8 -2.4,2.1 0,1.8 2.2,2.6 3.3,3.2 2.2,1 2.9,1.4 3.8,2.1 0.9,0.8 2.2,2.2 2.2,5 0,2.9 -1.4,4.6 -2.2,5.3 -0.2,0.2 -0.8,0.8 -1.7,1.2 -1.7,0.9 -3.6,1 -4.3,1 -0.5,0 -2.3,-0.1 -3.9,-0.7 -1.8,-0.7 -3.3,-2.2 -3.7,-2.6 l 3.4,-3.7 c 1.1,1.2 2.4,2.7 4.3,2.7 1.5,0 2.8,-1.1 2.8,-2.7 0,-0.5 -0.1,-0.9 -0.4,-1.3 -0.6,-1 -2.1,-1.6 -3,-2 -1.2,-0.6 -2.3,-1.2 -3.4,-2 -0.8,-0.7 -2.6,-2.3 -2.6,-5.2 0,-1.9 0.8,-3.2 1.2,-3.8 2,-2.9 5.3,-3.1 6.4,-3.1 0.5,0 2.2,0.1 3.8,0.8 1.5,0.7 2.5,1.9 2.9,2.3 z"
   id="path278" />
	<path
   class="st4"
   d="m 467.4,49.4 v 4.5 h -5 v 18.8 h -5 V 53.9 h -5 v -4.6 h 15 z"
   id="path280" />
</g>
</svg>
