<?xml version="1.0" encoding="UTF-8"?><svg id="Logos_colored" xmlns="http://www.w3.org/2000/svg" viewBox="18 18 242 58"><defs><style>.cls-1{fill:#e0743f;}.cls-2{fill:#c15934;}.cls-3{fill:#e58b59;}</style></defs><path class="cls-1" d="M26.02,50.43v6.89l-5.5-2.92c-.2-.1-.32-.3-.32-.52s.12-.42.32-.52l5.5-2.92Z"/><path class="cls-2" d="M62.39,50.99v20.54c0,.49-.38.87-.87.87h-3.36v-19.88l3.6-1.66.63.14Z"/><path class="cls-1" d="M85.82,48.91s-.07.03-.1.03c-.02,0-.04,0-.06-.02l-6.56-.77,3.98-4.54s.05-.1.05-.15c.77,1.44,2.67,4.95,2.78,5.16,0,.01.01.02.02.04.04.1,0,.21-.1.26Z"/><path class="cls-2" d="M41.82,66.95l-7,7c-.21.23-.52.36-.85.36h-6.75c-.66,0-1.2-.54-1.2-1.21v-35.52c0-.41.2-.78.54-1.01l11.31-7.42c.19-.13.43-.2.67-.2h3.28s0,0,.01,0c-.01,0-.02,0-.03,0-.05,0-.1.02-.13.06l-4.3,4.73c-.22.25-.34.57-.34.88v4.32l-9.46,5.28c-.21.12-.36.31-.41.54-.06.24-.01.49.13.69l13.76,20.02.8,1.21c.05.08.04.18-.03.25Z"/><path class="cls-1" d="M58.16,52.51v21.01c0,.21-.07.41-.21.56-.15.16-.36.25-.58.25h-9.79c-.28,0-.55-.14-.71-.37l-5.82-8.46-13.76-20.02c-.14-.21-.18-.46-.13-.69.06-.23.2-.43.41-.54l9.46-5.28v12.66c0,.48.38.87.85.87l19.88.09h.21s0,0,0,0c.01,0,.03,0,.04,0,.01,0,.03,0,.04-.01,0,0,.01,0,.02,0l.08-.04Z"/><path class="cls-1" d="M58.16,52.45v.06l-.08.04s.06-.05.07-.08c0,0,0-.01,0-.02Z"/><path class="cls-2" d="M60.71,26.39h-11.96v-5.76c0-.14.07-.27.19-.34.04-.04.11-.07.19-.07.07,0,.14.01.19.04l11.29,6.05s.07.04.1.07Z"/><path class="cls-2" d="M83.07,43.61l-3.98,4.54-4.74,5.41s-.05.05-.08.06c.01,0,.02-.02.03-.03.05-.07.05-.15,0-.22l-3.65-5.84-.25-1.43,4-3.81s.1-.06.16-.05l8.38,1.05c.07,0,.13.06.16.13,0,.02,0,.04.01.05,0,.05-.01.11-.05.15Z"/><path class="cls-1" d="M74.29,53.59s-.02.02-.03.03c-.04.03-.08.05-.13.05-.01,0-.03,0-.04,0l-11.7-2.68-.63-.14-3.69,1.7s.06-.05.07-.08c.04-.07.03-.15-.01-.21l-.11-.15-16.05-23.08s-.09-.08-.15-.08c-.01,0-.02,0-.03,0l5.49-2.44c.19-.1.4-.12.54-.12h12.89s.09.01.12.04l6.7,5.3c.28.22.46.52.52.87l2.33,13.49.25,1.43,3.65,5.84c.04.07.04.16,0,.22Z"/><path class="cls-3" d="M58.17,52.4s0,.01,0,.02c0,0,0,.02,0,.03,0,0,0,.01,0,.02-.02.03-.04.06-.07.08,0,0-.01,0-.02,0-.01,0-.03.01-.04.01-.01,0-.03,0-.04,0h-.21s-19.88-.1-19.88-.1c-.47,0-.85-.39-.85-.87v-16.99c0-.31.12-.63.34-.88l4.3-4.73s.08-.06.13-.06c0,0,.02,0,.03,0,.02,0,.05,0,.07.02,0,0,.01,0,.02.01,0,0,.02.01.03.02,0,0,.01.01.02.02,0,0,0,0,.01.01h0s16.05,23.08,16.05,23.08l.11.15s.04.09.03.14Z"/><path class="cls-2" d="M99.11,50.83c2.18,0,3.69.23,5.11,1.48,1.57,1.39,1.97,3.28,1.97,4.67,0,.75-.12,2.84-1.6,4.32-1.07,1.07-2.67,1.71-4.9,1.71h-2.44v7.17h-3.77v-19.36h5.63ZM97.25,59.76h1.54c.73,0,1.65,0,2.47-.61.7-.55,1.04-1.42,1.04-2.26,0-1.07-.52-1.8-1.07-2.21-.78-.55-1.77-.61-2.67-.61h-1.31v5.69Z"/><path class="cls-2" d="M121.45,66.12h-7.81l-1.71,4.06h-4.09l8.33-19.36h2.96l8.1,19.36h-4.06l-1.71-4.06ZM120.35,63.04l-2.76-6.96-2.76,6.96h5.51Z"/><path class="cls-2" d="M145.04,69.49c-1.16.61-2.7,1.13-4.79,1.13-3.39,0-5.46-1.16-7.08-2.7-2.23-2.15-3.1-4.56-3.1-7.4,0-3.51,1.45-6.04,3.1-7.57,1.94-1.83,4.35-2.55,7.11-2.55,1.36,0,2.99.23,4.76,1.19v4.41c-1.77-2.03-3.98-2.18-4.67-2.18-3.89,0-6.41,3.19-6.41,6.76,0,4.29,3.31,6.62,6.56,6.62,1.8,0,3.39-.78,4.53-2.12v4.41Z"/><path class="cls-2" d="M155.18,59.01l7.11-8.18h4.76l-8.18,8.94,8.62,10.42h-4.99l-6.88-8.68-.44.44v8.24h-3.77v-19.36h3.77v8.18Z"/><path class="cls-2" d="M185,66.12h-7.81l-1.71,4.06h-4.09l8.33-19.36h2.96l8.1,19.36h-4.06l-1.71-4.06ZM183.9,63.04l-2.76-6.96-2.76,6.96h5.51Z"/><path class="cls-2" d="M204.37,59.82h8.88v.23c0,1.31-.17,5.37-2.84,8.01-2,2-4.47,2.55-6.88,2.55s-4.9-.49-7.02-2.61c-.67-.67-2.87-3.11-2.87-7.46,0-3.74,1.68-6.04,2.84-7.2,1.45-1.48,3.89-2.96,7.63-2.96,1.45,0,2.99.23,4.47,1.02,1.25.64,2.61,1.8,3.63,3.54l-3.28,1.77c-.67-1.31-1.65-1.97-2.26-2.29-.81-.41-1.83-.61-2.73-.61-1.54,0-3.28.55-4.47,1.71-1.1,1.07-1.94,2.93-1.94,5.11,0,2.58,1.1,4.12,1.92,4.9.87.84,2.23,1.65,4.29,1.65,1.28,0,2.73-.35,3.8-1.16.75-.58,1.51-1.57,1.83-2.96h-4.99v-3.25Z"/><path class="cls-2" d="M222.94,50.83v19.36h-3.77v-19.36h3.77Z"/><path class="cls-2" d="M239.18,55.24c-1.13-1.51-2.47-1.65-3.16-1.65-2.03,0-2.67,1.28-2.67,2.26,0,.46.15.9.61,1.31.46.44,1.1.67,2.32,1.1,1.51.52,2.93,1.04,3.92,1.94.87.78,1.65,2.09,1.65,4.06,0,3.77-2.73,6.35-6.73,6.35-3.57,0-5.66-2.18-6.67-3.66l2.47-2.35c.93,1.89,2.7,2.58,4.06,2.58,1.71,0,2.99-1.04,2.99-2.67,0-.7-.23-1.25-.75-1.74-.73-.67-1.89-1.04-2.99-1.42-1.02-.35-2.23-.81-3.22-1.68-.64-.55-1.54-1.63-1.54-3.6,0-2.84,1.92-5.69,6.21-5.69,1.22,0,3.51.23,5.48,2.26l-1.97,2.58Z"/><path class="cls-2" d="M253.95,54.08v16.11h-3.77v-16.11h-4.35v-3.25h12.48v3.25h-4.35Z"/><path class="cls-2" d="M99.11,23.93c2.18,0,3.69.23,5.11,1.48,1.57,1.39,1.97,3.28,1.97,4.67,0,.75-.12,2.84-1.6,4.32-1.07,1.07-2.67,1.71-4.9,1.71h-2.44v7.17h-3.77v-19.35h5.63ZM97.25,32.87h1.54c.73,0,1.65,0,2.47-.61.7-.55,1.04-1.42,1.04-2.26,0-1.07-.52-1.8-1.07-2.21-.78-.55-1.77-.61-2.67-.61h-1.31v5.69Z"/><path class="cls-2" d="M117,23.93c2.67,0,4.03.7,4.93,1.45,1.48,1.25,1.92,2.9,1.92,4.35,0,1.89-.75,3.54-2.26,4.56-.49.35-1.19.67-2.12.84l6.04,8.15h-4.7l-5.17-7.78h-.46v7.78h-3.77v-19.35h5.6ZM115.17,32.84h1.07c.73,0,3.71-.09,3.71-2.93s-2.96-2.9-3.66-2.9h-1.13v5.83Z"/><path class="cls-2" d="M134.21,23.93v19.35h-3.77v-19.35h3.77Z"/><path class="cls-2" d="M143.1,23.93l5.17,13,5.17-13h4.12l-8.18,19.35h-2.26l-8.12-19.35h4.12Z"/><path class="cls-2" d="M171.79,39.22h-7.81l-1.71,4.06h-4.09l8.33-19.35h2.96l8.1,19.35h-4.06l-1.71-4.06ZM170.68,36.15l-2.76-6.96-2.76,6.96h5.51Z"/><path class="cls-2" d="M187.19,27.18v16.1h-3.77v-16.1h-4.35v-3.25h12.48v3.25h-4.35Z"/><path class="cls-2" d="M207.13,27.18h-6.96v4.32h6.67v3.25h-6.67v5.28h6.96v3.25h-10.74v-19.35h10.74v3.25Z"/></svg>