<?xml version="1.0" encoding="UTF-8"?><svg id="Logos_Outlines" xmlns="http://www.w3.org/2000/svg" viewBox="0 0 745.89 229.44"><defs><style>.cls-1{fill:#171228;}</style></defs><path class="cls-1" d="M17.22,82.62c-4.12-2.2-7.42-5.32-9.9-9.36-2.48-4.04-3.8-8.62-3.96-13.74h16.68c.16,2.4.76,4.5,1.8,6.3,1.04,1.8,2.4,3.22,4.08,4.26,1.68,1.04,3.68,1.56,6,1.56h5.52c1.76,0,3.46-.4,5.1-1.2,1.64-.8,2.96-1.96,3.96-3.48,1-1.52,1.5-3.36,1.5-5.52,0-2.32-.7-4.2-2.1-5.64-1.4-1.44-3.18-2.56-5.34-3.36-2.16-.8-5.2-1.76-9.12-2.88-5.52-1.36-10.1-2.8-13.74-4.32-3.64-1.52-6.76-3.98-9.36-7.38-2.6-3.4-3.9-7.98-3.9-13.74,0-4.64,1.16-8.8,3.48-12.48,2.32-3.68,5.46-6.54,9.42-8.58S25.6,0,30.24,0h6c4.64,0,8.9.94,12.78,2.82,3.88,1.88,7.02,4.66,9.42,8.34,2.4,3.68,3.8,8.04,4.2,13.08h-16.56c-.48-3.2-1.6-5.66-3.36-7.38-1.76-1.72-4.12-2.58-7.08-2.58h-5.28c-1.52,0-3,.36-4.44,1.08-1.44.72-2.58,1.74-3.42,3.06-.84,1.32-1.26,2.86-1.26,4.62,0,2.24.7,4.06,2.1,5.46,1.4,1.4,3.14,2.5,5.22,3.3,2.08.8,5.08,1.72,9,2.76,5.68,1.28,10.32,2.7,13.92,4.26,3.6,1.56,6.74,4.08,9.42,7.56,2.68,3.48,4.02,8.22,4.02,14.22,0,5.12-1.2,9.58-3.6,13.38-2.4,3.8-5.7,6.74-9.9,8.82-4.2,2.08-9.02,3.12-14.46,3.12h-5.88c-5.12,0-9.74-1.1-13.86-3.3ZM81.84,81.9c-4.08-2.68-7.28-6.4-9.6-11.16-2.32-4.76-3.48-10.1-3.48-16.02s1.16-11.26,3.48-16.02c2.32-4.76,5.52-8.48,9.6-11.16,4.08-2.68,8.64-4.02,13.68-4.02h4.8c5.04,0,9.6,1.34,13.68,4.02,4.08,2.68,7.28,6.4,9.6,11.16,2.32,4.76,3.48,10.1,3.48,16.02s-1.16,11.26-3.48,16.02c-2.32,4.76-5.5,8.48-9.54,11.16-4.04,2.68-8.58,4.02-13.62,4.02h-4.8c-5.12,0-9.72-1.34-13.8-4.02ZM105.72,70.26c1.76-1.56,3.16-3.72,4.2-6.48,1.04-2.76,1.56-5.78,1.56-9.06s-.52-6.3-1.56-9.06c-1.04-2.76-2.46-4.92-4.26-6.48-1.8-1.56-3.78-2.34-5.94-2.34h-3.6c-2.16,0-4.14.76-5.94,2.28-1.8,1.52-3.22,3.66-4.26,6.42-1.04,2.76-1.56,5.82-1.56,9.18s.52,6.42,1.56,9.18c1.04,2.76,2.46,4.9,4.26,6.42,1.8,1.52,3.78,2.28,5.94,2.28h3.72c2.16,0,4.12-.78,5.88-2.34ZM127.15,24.48h15.84l11.76,35.64c.4,1.2,1.02,1.8,1.86,1.8s1.46-.6,1.86-1.8l11.4-35.64h15.84l-21.36,60.48h-15.84l-21.36-60.48ZM202.39,59.1c-.56.6-.72,1.42-.48,2.46.32,1.92.96,3.74,1.92,5.46.96,1.72,2.18,3.14,3.66,4.26,1.48,1.12,3.22,1.68,5.22,1.68h4.32c2.48,0,4.62-.8,6.42-2.4,1.8-1.6,2.94-3.6,3.42-6h14.76c-.4,4.08-1.76,7.74-4.08,10.98-2.32,3.24-5.28,5.78-8.88,7.62-3.6,1.84-7.52,2.76-11.76,2.76h-4.32c-5.04,0-9.6-1.32-13.68-3.96-4.08-2.64-7.28-6.36-9.6-11.16-2.32-4.8-3.48-10.2-3.48-16.2s1.24-11.62,3.72-16.38c2.48-4.76,5.74-8.4,9.78-10.92,4.04-2.52,8.38-3.78,13.02-3.78h4.44c4.8,0,9.12,1.3,12.96,3.9,3.84,2.6,6.86,6.14,9.06,10.62,2.2,4.48,3.3,9.4,3.3,14.76,0,1.36-.08,2.8-.24,4.32v1.08h-36.96c-1.12,0-1.96.3-2.52.9ZM203.47,46.02c.48.76,1.4,1.14,2.76,1.14h16.68c1.28,0,2.2-.36,2.76-1.08.56-.72.6-1.68.12-2.88-.56-2.24-1.66-4.08-3.3-5.52-1.64-1.44-3.5-2.16-5.58-2.16h-4.2c-1.84,0-3.6.68-5.28,2.04-1.68,1.36-3,3.2-3.96,5.52-.48,1.2-.48,2.18,0,2.94ZM269.41,39.42c-1.72,1.32-3.04,3.06-3.96,5.22-.92,2.16-1.38,4.44-1.38,6.84v33.48h-15.48V24.48h15.48v2.4c0,1.36.38,2.14,1.14,2.34.76.2,1.7-.22,2.82-1.26,1.12-1.2,2.42-2.08,3.9-2.64,1.48-.56,3.26-.84,5.34-.84h6.48v12.96h-8.16c-2.4,0-4.46.66-6.18,1.98ZM300.67,59.1c-.56.6-.72,1.42-.48,2.46.32,1.92.96,3.74,1.92,5.46.96,1.72,2.18,3.14,3.66,4.26,1.48,1.12,3.22,1.68,5.22,1.68h4.32c2.48,0,4.62-.8,6.42-2.4,1.8-1.6,2.94-3.6,3.42-6h14.76c-.4,4.08-1.76,7.74-4.08,10.98-2.32,3.24-5.28,5.78-8.88,7.62-3.6,1.84-7.52,2.76-11.76,2.76h-4.32c-5.04,0-9.6-1.32-13.68-3.96-4.08-2.64-7.28-6.36-9.6-11.16-2.32-4.8-3.48-10.2-3.48-16.2s1.24-11.62,3.72-16.38c2.48-4.76,5.74-8.4,9.78-10.92,4.04-2.52,8.38-3.78,13.02-3.78h4.44c4.8,0,9.12,1.3,12.96,3.9,3.84,2.6,6.86,6.14,9.06,10.62,2.2,4.48,3.3,9.4,3.3,14.76,0,1.36-.08,2.8-.24,4.32v1.08h-36.96c-1.12,0-1.96.3-2.52.9ZM301.75,46.02c.48.76,1.4,1.14,2.76,1.14h16.68c1.28,0,2.2-.36,2.76-1.08.56-.72.6-1.68.12-2.88-.56-2.24-1.66-4.08-3.3-5.52-1.64-1.44-3.5-2.16-5.58-2.16h-4.2c-1.84,0-3.6.68-5.28,2.04-1.68,1.36-3,3.2-3.96,5.52-.48,1.2-.48,2.18,0,2.94ZM365.23.96v13.92h-16.56V.96h16.56ZM349.15,24.48h15.48v60.48h-15.48V24.48ZM374.59,104.82c-4-3.08-6-7.22-6-12.42,0-2.16.36-4.18,1.08-6.06.72-1.88,1.76-3.5,3.12-4.86.64-.72,1-1.42,1.08-2.1.08-.68-.16-1.38-.72-2.1-.8-.96-1.4-2.02-1.8-3.18-.4-1.16-.6-2.34-.6-3.54,0-2,.64-3.88,1.92-5.64,1.28-1.76,2.92-3.12,4.92-4.08.96-.48,1.52-1.04,1.68-1.68.16-.64-.12-1.36-.84-2.16-1.52-1.76-2.66-3.7-3.42-5.82-.76-2.12-1.14-4.34-1.14-6.66,0-4.08.98-7.7,2.94-10.86,1.96-3.16,4.58-5.64,7.86-7.44,3.28-1.8,7-2.7,11.16-2.7h3.96c1.12,0,2.16.04,3.12.12.96.08,1.96.2,3,.36,3.84.32,6.72.48,8.64.48h13.56v10.68h-5.52c-1.2,0-1.98.28-2.34.84-.36.56-.34,1.4.06,2.52.56,1.04.94,2.12,1.14,3.24.2,1.12.3,2.32.3,3.6,0,3.68-1.02,7.08-3.06,10.2-2.04,3.12-4.72,5.58-8.04,7.38-3.32,1.8-6.86,2.7-10.62,2.7h-10.2c-1.2,0-2.22.32-3.06.96-.84.64-1.26,1.52-1.26,2.64s.44,2,1.32,2.64c.88.64,2,.96,3.36.96h18.36c5.92,0,10.64,1.62,14.16,4.86,3.52,3.24,5.28,7.46,5.28,12.66,0,3.84-1.02,7.2-3.06,10.08s-4.82,5.1-8.34,6.66c-3.52,1.56-7.48,2.34-11.88,2.34h-13.44c-7.12,0-12.68-1.54-16.68-4.62ZM410.83,95.52c1.28-1.2,1.92-2.8,1.92-4.8,0-1.84-.62-3.32-1.86-4.44-1.24-1.12-2.94-1.68-5.1-1.68h-14.76c-2.64,0-4.48.64-5.52,1.92-1.04,1.28-1.56,2.76-1.56,4.44,0,1.92.66,3.46,1.98,4.62,1.32,1.16,3.18,1.74,5.58,1.74h13.92c2.32,0,4.12-.6,5.4-1.8ZM403.21,52.32c1.16-.88,2.04-2,2.64-3.36.6-1.36.9-2.84.9-4.44s-.3-2.96-.9-4.32c-.6-1.36-1.48-2.48-2.64-3.36-1.16-.88-2.46-1.32-3.9-1.32h-3.12c-1.28,0-2.46.38-3.54,1.14-1.08.76-2.02,1.82-2.82,3.18-.8,1.36-1.2,2.92-1.2,4.68s.4,3.44,1.2,4.8c.8,1.36,1.74,2.42,2.82,3.18,1.08.76,2.22,1.14,3.42,1.14h3.24c1.44,0,2.74-.44,3.9-1.32ZM434.68,24.48h15.48v2.52c0,1.28.42,2.06,1.26,2.34.84.28,1.9-.1,3.18-1.14,1.6-1.44,3.34-2.58,5.22-3.42,1.88-.84,3.9-1.26,6.06-1.26h4.32c3.44,0,6.62,1.02,9.54,3.06,2.92,2.04,5.26,4.82,7.02,8.34,1.76,3.52,2.64,7.44,2.64,11.76v38.28h-15.48v-35.76c0-2.16-.36-4.16-1.08-6-.72-1.84-1.76-3.28-3.12-4.32-1.36-1.04-2.96-1.56-4.8-1.56h-3.84c-2.08,0-3.94.68-5.58,2.04-1.64,1.36-2.94,3.2-3.9,5.52-.96,2.32-1.44,4.92-1.44,7.8v32.28h-15.48V24.48ZM529.96,16.2c-.64-.64-1.52-.96-2.64-.96h-19.44V.96h62.52v14.28h-19.2c-1.12,0-2,.32-2.64.96-.64.64-.96,1.52-.96,2.64v66.12h-16.68V18.84c0-1.12-.32-2-.96-2.64ZM581.6,59.1c-.56.6-.72,1.42-.48,2.46.32,1.92.96,3.74,1.92,5.46.96,1.72,2.18,3.14,3.66,4.26,1.48,1.12,3.22,1.68,5.22,1.68h4.32c2.48,0,4.62-.8,6.42-2.4,1.8-1.6,2.94-3.6,3.42-6h14.76c-.4,4.08-1.76,7.74-4.08,10.98-2.32,3.24-5.28,5.78-8.88,7.62-3.6,1.84-7.52,2.76-11.76,2.76h-4.32c-5.04,0-9.6-1.32-13.68-3.96-4.08-2.64-7.28-6.36-9.6-11.16-2.32-4.8-3.48-10.2-3.48-16.2s1.24-11.62,3.72-16.38c2.48-4.76,5.74-8.4,9.78-10.92,4.04-2.52,8.38-3.78,13.02-3.78h4.44c4.8,0,9.12,1.3,12.96,3.9,3.84,2.6,6.86,6.14,9.06,10.62,2.2,4.48,3.3,9.4,3.3,14.76,0,1.36-.08,2.8-.24,4.32v1.08h-36.96c-1.12,0-1.96.3-2.52.9ZM582.68,46.02c.48.76,1.4,1.14,2.76,1.14h16.68c1.28,0,2.2-.36,2.76-1.08.56-.72.6-1.68.12-2.88-.56-2.24-1.66-4.08-3.3-5.52-1.64-1.44-3.5-2.16-5.58-2.16h-4.2c-1.84,0-3.6.68-5.28,2.04-1.68,1.36-3,3.2-3.96,5.52-.48,1.2-.48,2.18,0,2.94ZM639.63,81.78c-4.08-2.76-7.22-6.52-9.42-11.28-2.2-4.76-3.3-10.02-3.3-15.78s1.12-11.12,3.36-15.84c2.24-4.72,5.42-8.46,9.54-11.22,4.12-2.76,8.9-4.14,14.34-4.14h3.84c4.56,0,8.68,1.06,12.36,3.18,3.68,2.12,6.6,5.06,8.76,8.82,2.16,3.76,3.36,8.04,3.6,12.84h-15.48c-.32-3.36-1.34-6.12-3.06-8.28-1.72-2.16-3.86-3.24-6.42-3.24h-3.6c-2.4,0-4.46.82-6.18,2.46-1.72,1.64-3.04,3.8-3.96,6.48-.92,2.68-1.38,5.66-1.38,8.94s.46,6.28,1.38,9c.92,2.72,2.22,4.88,3.9,6.48,1.68,1.6,3.68,2.4,6,2.4h3.6c2.64,0,4.82-1.04,6.54-3.12,1.72-2.08,2.86-4.8,3.42-8.16h15.36c-.48,4.64-1.84,8.84-4.08,12.6-2.24,3.76-5.16,6.7-8.76,8.82-3.6,2.12-7.72,3.18-12.36,3.18h-3.72c-5.44,0-10.2-1.38-14.28-4.14ZM691.17.96h15.48v26.04c0,1.28.42,2.06,1.26,2.34.84.28,1.9-.1,3.18-1.14,1.6-1.44,3.34-2.58,5.22-3.42,1.88-.84,3.9-1.26,6.06-1.26h4.32c3.44,0,6.62,1.02,9.54,3.06,2.92,2.04,5.26,4.82,7.02,8.34,1.76,3.52,2.64,7.44,2.64,11.76v38.28h-15.48v-35.76c0-2.16-.36-4.16-1.08-6-.72-1.84-1.76-3.28-3.12-4.32-1.36-1.04-2.96-1.56-4.8-1.56h-3.84c-2.08,0-3.94.68-5.58,2.04-1.64,1.36-2.94,3.2-3.9,5.52-.96,2.32-1.44,4.92-1.44,7.8v32.28h-15.48V.96ZM29.88,120.96h16.92l30,84h-17.52l-5.28-15.6c-.4-1.12-.94-1.92-1.62-2.4-.68-.48-1.58-.72-2.7-.72h-22.68c-2.24,0-3.68,1.04-4.32,3.12l-5.28,15.6H0l29.88-84ZM29.22,170.94c.52.6,1.3.9,2.34.9h13.44c1.04,0,1.8-.3,2.28-.9.48-.6.56-1.46.24-2.58l-7.2-21.24c-.24-.88-.62-1.46-1.14-1.74-.52-.28-1.06-.26-1.62.06-.56.32-.96.88-1.2,1.68l-7.32,21.24c-.4,1.12-.34,1.98.18,2.58ZM85.52,224.82c-4-3.08-6-7.22-6-12.42,0-2.16.36-4.18,1.08-6.06.72-1.88,1.76-3.5,3.12-4.86.64-.72,1-1.42,1.08-2.1.08-.68-.16-1.38-.72-2.1-.8-.96-1.4-2.02-1.8-3.18-.4-1.16-.6-2.34-.6-3.54,0-2,.64-3.88,1.92-5.64,1.28-1.76,2.92-3.12,4.92-4.08.96-.48,1.52-1.04,1.68-1.68.16-.64-.12-1.36-.84-2.16-1.52-1.76-2.66-3.7-3.42-5.82-.76-2.12-1.14-4.34-1.14-6.66,0-4.08.98-7.7,2.94-10.86,1.96-3.16,4.58-5.64,7.86-7.44,3.28-1.8,7-2.7,11.16-2.7h3.96c1.12,0,2.16.04,3.12.12.96.08,1.96.2,3,.36,3.84.32,6.72.48,8.64.48h13.56v10.68h-5.52c-1.2,0-1.98.28-2.34.84-.36.56-.34,1.4.06,2.52.56,1.04.94,2.12,1.14,3.24.2,1.12.3,2.32.3,3.6,0,3.68-1.02,7.08-3.06,10.2-2.04,3.12-4.72,5.58-8.04,7.38-3.32,1.8-6.86,2.7-10.62,2.7h-10.2c-1.2,0-2.22.32-3.06.96-.84.64-1.26,1.52-1.26,2.64s.44,2,1.32,2.64c.88.64,2,.96,3.36.96h18.36c5.92,0,10.64,1.62,14.16,4.86,3.52,3.24,5.28,7.46,5.28,12.66,0,3.84-1.02,7.2-3.06,10.08s-4.82,5.1-8.34,6.66c-3.52,1.56-7.48,2.34-11.88,2.34h-13.44c-7.12,0-12.68-1.54-16.68-4.62ZM121.76,215.52c1.28-1.2,1.92-2.8,1.92-4.8,0-1.84-.62-3.32-1.86-4.44-1.24-1.12-2.94-1.68-5.1-1.68h-14.76c-2.64,0-4.48.64-5.52,1.92-1.04,1.28-1.56,2.76-1.56,4.44,0,1.92.66,3.46,1.98,4.62,1.32,1.16,3.18,1.74,5.58,1.74h13.92c2.32,0,4.12-.6,5.4-1.8ZM114.14,172.32c1.16-.88,2.04-2,2.64-3.36.6-1.36.9-2.84.9-4.44,0-1.52-.3-2.96-.9-4.32-.6-1.36-1.48-2.48-2.64-3.36-1.16-.88-2.46-1.32-3.9-1.32h-3.12c-1.28,0-2.46.38-3.54,1.14-1.08.76-2.02,1.82-2.82,3.18-.8,1.36-1.2,2.92-1.2,4.68s.4,3.44,1.2,4.8c.8,1.36,1.74,2.42,2.82,3.18,1.08.76,2.22,1.14,3.42,1.14h3.24c1.44,0,2.74-.44,3.9-1.32ZM157.82,179.1c-.56.6-.72,1.42-.48,2.46.32,1.92.96,3.74,1.92,5.46.96,1.72,2.18,3.14,3.66,4.26,1.48,1.12,3.22,1.68,5.22,1.68h4.32c2.48,0,4.62-.8,6.42-2.4,1.8-1.6,2.94-3.6,3.42-6h14.76c-.4,4.08-1.76,7.74-4.08,10.98-2.32,3.24-5.28,5.78-8.88,7.62-3.6,1.84-7.52,2.76-11.76,2.76h-4.32c-5.04,0-9.6-1.32-13.68-3.96-4.08-2.64-7.28-6.36-9.6-11.16-2.32-4.8-3.48-10.2-3.48-16.2s1.24-11.62,3.72-16.38c2.48-4.76,5.74-8.4,9.78-10.92,4.04-2.52,8.38-3.78,13.02-3.78h4.44c4.8,0,9.12,1.3,12.96,3.9,3.84,2.6,6.86,6.14,9.06,10.62,2.2,4.48,3.3,9.4,3.3,14.76,0,1.36-.08,2.8-.24,4.32v1.08h-36.96c-1.12,0-1.96.3-2.52.9ZM158.9,166.02c.48.76,1.4,1.14,2.76,1.14h16.68c1.28,0,2.2-.36,2.76-1.08.56-.72.6-1.68.12-2.88-.56-2.24-1.66-4.08-3.3-5.52-1.64-1.44-3.5-2.16-5.58-2.16h-4.2c-1.84,0-3.6.68-5.28,2.04-1.68,1.36-3,3.2-3.96,5.52-.48,1.2-.48,2.18,0,2.94ZM206.24,144.48h15.48v2.52c0,1.28.42,2.06,1.26,2.34.84.28,1.9-.1,3.18-1.14,1.6-1.44,3.34-2.58,5.22-3.42,1.88-.84,3.9-1.26,6.06-1.26h4.32c3.44,0,6.62,1.02,9.54,3.06,2.92,2.04,5.26,4.82,7.02,8.34,1.76,3.52,2.64,7.44,2.64,11.76v38.28h-15.48v-35.76c0-2.16-.36-4.16-1.08-6-.72-1.84-1.76-3.28-3.12-4.32-1.36-1.04-2.96-1.56-4.8-1.56h-3.84c-2.08,0-3.94.68-5.58,2.04-1.64,1.36-2.94,3.2-3.9,5.52-.96,2.32-1.44,4.92-1.44,7.8v32.28h-15.48v-60.48ZM281.64,201.78c-4.08-2.76-7.22-6.52-9.42-11.28-2.2-4.76-3.3-10.02-3.3-15.78s1.12-11.12,3.36-15.84c2.24-4.72,5.42-8.46,9.54-11.22,4.12-2.76,8.9-4.14,14.34-4.14h3.84c4.56,0,8.68,1.06,12.36,3.18,3.68,2.12,6.6,5.06,8.76,8.82,2.16,3.76,3.36,8.04,3.6,12.84h-15.48c-.32-3.36-1.34-6.12-3.06-8.28-1.72-2.16-3.86-3.24-6.42-3.24h-3.6c-2.4,0-4.46.82-6.18,2.46-1.72,1.64-3.04,3.8-3.96,6.48-.92,2.68-1.38,5.66-1.38,8.94s.46,6.28,1.38,9c.92,2.72,2.22,4.88,3.9,6.48,1.68,1.6,3.68,2.4,6,2.4h3.6c2.64,0,4.82-1.04,6.54-3.12,1.72-2.08,2.86-4.8,3.42-8.16h15.36c-.48,4.64-1.84,8.84-4.08,12.6-2.24,3.76-5.16,6.7-8.76,8.82-3.6,2.12-7.72,3.18-12.36,3.18h-3.72c-5.44,0-10.2-1.38-14.28-4.14ZM342.57,214.62c1.28-1.24,2.2-2.72,2.76-4.44.56-1.72.84-3.38.84-4.98,0-1.2-.1-2.36-.3-3.48-.2-1.12-.62-2.52-1.26-4.2v-.12l-19.32-52.92h15.84l11.88,35.4c.4,1.04.96,1.56,1.68,1.56s1.24-.52,1.56-1.56l11.76-35.4h15.84l-25.2,69.84c-1.92,5.2-4.44,9.02-7.56,11.46-3.12,2.44-7,3.66-11.64,3.66h-8.4v-12.96h6.6c2,0,3.64-.62,4.92-1.86Z"/></svg>